<?xml version="1.0" encoding="UTF-8"?>
<svg id="Layer_2" data-name="Layer 2" xmlns="http://www.w3.org/2000/svg" viewBox="0 0 10 12.81">
  <defs>
    <style>
      .cls-1, .cls-2, .cls-3 {
        opacity: .47;
      }

      .cls-1, .cls-4 {
        fill: #f15b27;
      }

      .cls-5, .cls-2 {
        fill: #f15a54;
      }

      .cls-6 {
        opacity: .5;
      }

      .cls-6, .cls-7 {
        fill: #fff;
      }

      .cls-8, .cls-3 {
        fill: #8374b5;
      }

      .cls-7 {
        opacity: .36;
      }
    </style>
  </defs>
  <g id="Layer_1-2" data-name="Layer 1">
    <g>
      <path class="cls-1" d="m6.21,5.34c0-1.71-1.39-3.1-3.1-3.1S0,3.63,0,5.34s1.29,4.52,2.93,4.72l-.15.36.82-.06-.22-.32c1.58-.3,2.83-3.09,2.83-4.71Z"/>
      <path class="cls-4" d="m2.84,10.16c.21-.08.42-.1.64-.05.07.02.09-.09.03-.1-.24-.05-.47-.04-.7.05-.06.02-.04.13.03.1h0Z"/>
    </g>
    <path class="cls-6" d="m1.88,4.7c-.25,1.25.22,2.33-.33,2.33s-1-.92-1-2.06.95-2.02,1.5-2.02.06.63-.17,1.75Z"/>
    <path class="cls-6" d="m4.42,8.06c.31-.58.45-1.17.72-1.08s.19.46-.1,1.08c-.25.53-.69.92-.97.84s.07-.32.35-.84Z"/>
    <circle class="cls-7" cx="1.71" cy="7.66" r=".39"/>
    <g>
      <path class="cls-2" d="m10,3.1c0-1.71-1.39-3.1-3.1-3.1s-3.1,1.39-3.1,3.1,1.29,4.52,2.93,4.72l-.15.36.82-.06-.22-.32c1.58-.3,2.83-3.09,2.83-4.71Z"/>
      <path class="cls-5" d="m6.63,7.92c.21-.08.42-.1.64-.05.07.02.09-.09.03-.1-.24-.05-.47-.04-.7.05-.06.02-.04.13.03.1h0Z"/>
    </g>
    <path class="cls-6" d="m5.67,2.46c-.25,1.25.22,2.33-.33,2.33s-1-.92-1-2.06.95-2.02,1.5-2.02.06.63-.17,1.75Z"/>
    <path class="cls-6" d="m8.21,5.82c.31-.58.45-1.17.72-1.08s.19.46-.1,1.08c-.25.53-.69.92-.97.84s.07-.32.35-.84Z"/>
    <circle class="cls-7" cx="5.5" cy="5.43" r=".39"/>
    <g>
      <path class="cls-3" d="m8.25,7.72c0-1.71-1.39-3.1-3.1-3.1s-3.1,1.39-3.1,3.1,1.29,4.52,2.93,4.72l-.15.36.82-.06-.22-.32c1.58-.3,2.83-3.09,2.83-4.71Z"/>
      <path class="cls-8" d="m4.88,12.54c.21-.08.42-.1.64-.05.07.02.09-.09.03-.1-.24-.05-.47-.04-.7.05-.06.02-.04.13.03.1h0Z"/>
    </g>
    <path class="cls-6" d="m3.92,7.08c-.25,1.25.22,2.33-.33,2.33s-1-.92-1-2.06.95-2.02,1.5-2.02.06.63-.17,1.75Z"/>
    <path class="cls-6" d="m6.46,10.44c.31-.58.45-1.17.72-1.08.27.08.19.46-.1,1.08-.25.53-.69.92-.97.84-.27-.08.07-.32.35-.84Z"/>
    <path class="cls-7" d="m4.14,10.05c0,.21-.17.39-.39.39s-.39-.17-.39-.39.17-.39.39-.39.39.17.39.39Z"/>
  </g>
</svg>