<?xml version="1.0" encoding="UTF-8"?>
<svg id="Layer_2" data-name="Layer 2" xmlns="http://www.w3.org/2000/svg" viewBox="0 0 13 12.4">
  <defs>
    <style>
      .cls-1 {
        fill: #fff;
      }

      .cls-2 {
        fill: #facedf;
      }

      .cls-3 {
        opacity: .39;
      }

      .cls-4 {
        fill: #fff3cd;
      }

      .cls-5 {
        fill: #fcf7c4;
      }

      .cls-6 {
        fill: #cdd6ae;
      }

      .cls-7 {
        fill: #e9ecc8;
      }

      .cls-8 {
        opacity: .37;
      }
    </style>
  </defs>
  <g id="Layer_1-2" data-name="Layer 1">
    <g>
      <g>
        <polyline class="cls-4" points="3.07 10.64 2.76 11.31 3.43 11.31 3.33 10.44"/>
        <circle class="cls-4" cx="3.1" cy="7.65" r="3.1"/>
        <g>
          <path class="cls-5" d="m4.16,4.74L.16,6.67c-.1.31-.16.64-.16.98,0,.02,0,.05,0,.07l5.08-2.45c-.27-.23-.58-.41-.92-.53Z"/>
          <path class="cls-5" d="m6.08,8.49c.07-.27.11-.54.11-.83,0-.07,0-.13,0-.2l-5.17,2.49c.26.23.55.42.87.56l4.19-2.02Z"/>
          <path class="cls-5" d="m6.03,6.66c-.1-.28-.23-.55-.4-.79L.13,8.53c.08.29.21.56.37.8l5.53-2.67Z"/>
        </g>
        <g class="cls-8">
          <path class="cls-1" d="m3.1,5.38c.5,0,.96.17,1.37.46.16.12.32-.15.16-.27-.45-.33-.97-.49-1.52-.5-.2,0-.2.31,0,.31h0Z"/>
        </g>
        <g class="cls-8">
          <path class="cls-1" d="m3.1,9.87c-1.24-.02-2.22-1-2.24-2.24,0-.2-.31-.2-.31,0,.03,1.41,1.14,2.53,2.55,2.55.2,0,.2-.31,0-.31h0Z"/>
        </g>
        <g class="cls-8">
          <path class="cls-1" d="m5.34,7.63c-.01.78-.4,1.48-1.06,1.91-.17.11-.01.38.16.27.75-.49,1.19-1.28,1.21-2.17,0-.2-.31-.2-.31,0h0Z"/>
        </g>
      </g>
      <g>
        <g>
          <polyline class="cls-7" points="9.93 11.73 10.24 12.4 9.57 12.4 9.67 11.52"/>
          <circle class="cls-7" cx="9.9" cy="8.74" r="3.1"/>
        </g>
        <g>
          <path class="cls-6" d="m7.2,8.53c.4,0,.72-.32.72-.72,0-.37-.28-.67-.64-.72-.25.39-.41.85-.46,1.34.11.07.24.1.37.1Z"/>
          <path class="cls-6" d="m8.69,11.58c.07-.11.1-.24.1-.37,0-.4-.32-.72-.72-.72-.21,0-.4.09-.54.24.31.37.7.66,1.15.85Z"/>
          <path class="cls-6" d="m12.59,7.19c-.39.01-.69.33-.69.72s.32.72.72.72c.14,0,.27-.04.38-.11-.03-.48-.18-.94-.41-1.33Z"/>
          <circle class="cls-6" cx="10.86" cy="9.46" r=".72"/>
          <path class="cls-6" d="m11.12,10.64c-.4,0-.72.32-.72.72,0,.15.05.29.12.4.48-.1.92-.31,1.29-.6-.08-.3-.36-.53-.7-.53Z"/>
          <path class="cls-6" d="m10.5,5.7c-.13.13-.21.31-.21.51,0,.4.32.72.72.72s.7-.31.72-.69c-.36-.26-.78-.45-1.23-.54Z"/>
          <circle class="cls-6" cx="9.31" cy="8.37" r=".72"/>
        </g>
        <g class="cls-8">
          <path class="cls-1" d="m9.9,6.47c-.5,0-.96.17-1.37.46-.16.12-.32-.15-.16-.27.45-.33.97-.49,1.52-.5.2,0,.2.31,0,.31h0Z"/>
        </g>
        <g class="cls-8">
          <path class="cls-1" d="m9.9,10.95c1.24-.02,2.22-1,2.24-2.24,0-.2.31-.2.31,0-.03,1.41-1.14,2.53-2.55,2.55-.2,0-.2-.31,0-.31h0Z"/>
        </g>
        <g class="cls-8">
          <path class="cls-1" d="m7.66,8.71c.01.78.4,1.48,1.06,1.91.17.11.01.38-.16.27-.75-.49-1.19-1.28-1.21-2.17,0-.2.31-.2.31,0h0Z"/>
        </g>
      </g>
      <path class="cls-2" d="m6.9,6.81c-.14.04-.49.84-.49.84l.38.07.66.03-.42-1.01"/>
      <path class="cls-2" d="m6.54.31c.21-.42.55-.42.75,0l.66,1.33c.21.42.76.82,1.22.89l1.47.21c.46.07.57.39.23.72l-1.07,1.04c-.34.33-.54.97-.47,1.43l.25,1.47c.08.46-.2.66-.61.44l-1.32-.69c-.41-.22-1.09-.22-1.51,0l-1.32.69c-.41.22-.69.02-.61-.44l.25-1.47c.08-.46-.13-1.11-.47-1.43l-1.07-1.04c-.34-.33-.23-.65.23-.72l1.47-.21c.46-.07,1.01-.47,1.22-.89l.66-1.33Z"/>
      <g class="cls-3">
        <path class="cls-1" d="m4.47,3.58c1,.16,2.02-.47,2.28-1.47.07-.27-.35-.39-.42-.12-.19.74-.97,1.29-1.74,1.16-.28-.04-.39.38-.12.42h0Z"/>
      </g>
      <g class="cls-3">
        <path class="cls-1" d="m8.88,3.97c-.41.62-.53,1.4-.32,2.11.08.27.5.16.42-.12-.18-.61-.08-1.24.27-1.77.16-.24-.22-.46-.38-.22h0Z"/>
      </g>
      <g class="cls-3">
        <path class="cls-1" d="m5.63,6.98c.3-.19.64-.31.99-.35.28-.03.28-.47,0-.44-.44.05-.84.18-1.21.41-.24.15-.02.53.22.38h0Z"/>
      </g>
    </g>
  </g>
</svg>