<?xml version="1.0" encoding="UTF-8"?>
<svg id="Layer_2" data-name="Layer 2" xmlns="http://www.w3.org/2000/svg" viewBox="0 0 300 461.71">
  <defs>
    <style>
      .cls-1 {
        fill: #fff;
      }

      .cls-2 {
        fill: #facedf;
      }

      .cls-3 {
        opacity: .39;
      }

      .cls-4 {
        fill: #fff3cd;
      }

      .cls-5 {
        fill: #fcf7c4;
      }

      .cls-6 {
        fill: #676767;
      }

      .cls-7 {
        fill: #cdd6ae;
      }

      .cls-8 {
        fill: #e9ecc8;
      }

      .cls-9 {
        opacity: .37;
      }
    </style>
  </defs>
  <g id="Layer_1-2" data-name="Layer 1">
    <g>
      <g>
        <polyline class="cls-4" points="70.83 245.63 63.69 261.11 79.17 261.11 76.79 240.87"/>
        <circle class="cls-4" cx="71.43" cy="176.59" r="71.43"/>
        <g>
          <path class="cls-5" d="m95.89,109.46L3.7,153.89c-2.39,7.13-3.7,14.76-3.7,22.7,0,.56.03,1.11.04,1.66l117.18-56.47c-6.29-5.26-13.48-9.46-21.33-12.32Z"/>
          <path class="cls-5" d="m140.22,195.81c1.71-6.12,2.64-12.56,2.64-19.23,0-1.53-.07-3.05-.16-4.56l-119.25,57.47c5.9,5.35,12.7,9.73,20.14,12.89l96.63-46.57Z"/>
          <path class="cls-5" d="m139.12,153.78c-2.2-6.53-5.31-12.63-9.19-18.17L2.93,196.83c1.95,6.62,4.84,12.83,8.5,18.5l127.69-61.54Z"/>
        </g>
        <g>
          <path class="cls-6" d="m63.75,251.27c4.75-1.58,9.61-1.91,14.59-1.04,1.01.18,1.18-1.8.17-1.98-5.27-.93-10.39-.54-15.42,1.14-.96.32-.3,2.19.65,1.87h0Z"/>
          <path class="cls-6" d="m72.45,247.6c-7.89,6.98-6.35,20.46-4.09,30.73,1.95,8.88,4.11,18.19.42,26.85-2.38,5.59-6.15,9.92-9.17,14.9-5.25,8.64-6.15,18.12-.93,27.16,6.3,10.9,16.22,18.03,15.34,33.42-.55,9.63-3.11,18.74-3.2,28.48-.08,9.22,1.27,18.28,3.8,26.89.35,1.2,1.87.68,1.51-.53-2.32-7.9-3.65-16.14-3.74-24.6-.09-8.43,1.51-16.34,2.63-24.57.83-6.11,1.05-12.35-.96-18.14-1.67-4.81-4.51-8.78-7.32-12.53-6.68-8.93-13.92-18.65-7.6-31.32,4.58-9.18,12.43-15.75,13.23-27.45.97-14.25-11.28-36.79.87-47.55.82-.73.04-2.47-.79-1.74h0Z"/>
        </g>
        <g class="cls-9">
          <path class="cls-1" d="m71.43,124.21c11.58.2,22.16,3.84,31.51,10.65,3.72,2.71,7.29-3.48,3.61-6.17-10.33-7.53-22.35-11.41-35.12-11.63-4.6-.08-4.6,7.06,0,7.14h0Z"/>
        </g>
        <g class="cls-9">
          <path class="cls-1" d="m71.43,227.78c-28.67-.44-51.19-23.18-51.79-51.79-.1-4.59-7.24-4.61-7.14,0,.67,32.5,26.34,58.43,58.93,58.93,4.6.07,4.6-7.07,0-7.14h0Z"/>
        </g>
        <g class="cls-9">
          <path class="cls-1" d="m123.21,175.99c-.35,18.06-9.22,34.15-24.41,43.97-3.85,2.49-.27,8.67,3.61,6.17,17.33-11.2,27.55-29.48,27.94-50.13.09-4.6-7.06-4.6-7.14,0h0Z"/>
        </g>
      </g>
      <g>
        <g>
          <g>
            <polyline class="cls-8" points="229.17 270.63 236.31 286.11 220.83 286.11 223.21 265.87"/>
            <circle class="cls-8" cx="228.57" cy="201.59" r="71.43"/>
          </g>
          <g>
            <path class="cls-6" d="m236.25,276.27c-4.75-1.58-9.61-1.91-14.59-1.04-1.01.18-1.18-1.8-.17-1.98,5.27-.93,10.39-.54,15.42,1.14.96.32.3,2.19-.65,1.87h0Z"/>
            <path class="cls-6" d="m227.55,272.6c7.89,6.98,6.35,20.46,4.1,30.73-1.95,8.88-4.11,18.19-.42,26.85,2.38,5.59,6.15,9.92,9.17,14.9,5.25,8.64,6.15,18.12.93,27.16-6.3,10.9-16.22,18.03-15.34,33.42.55,9.63,3.11,18.74,3.2,28.48.08,9.22-1.27,18.28-3.8,26.89-.35,1.2-1.87.68-1.51-.53,2.32-7.9,3.65-16.14,3.74-24.6.09-8.43-1.51-16.34-2.63-24.57-.83-6.11-1.05-12.35.96-18.14,1.67-4.81,4.51-8.78,7.32-12.53,6.68-8.93,13.92-18.65,7.6-31.32-4.58-9.18-12.43-15.75-13.23-27.45-.97-14.25,11.28-36.79-.87-47.55-.82-.73-.04-2.47.79-1.74h0Z"/>
          </g>
        </g>
        <g>
          <path class="cls-7" d="m166.07,196.83c9.2,0,16.67-7.46,16.67-16.67,0-8.52-6.4-15.54-14.66-16.53-5.72,9.1-9.46,19.56-10.58,30.81,2.51,1.51,5.43,2.39,8.57,2.39Z"/>
          <path class="cls-7" d="m200.57,267.32c1.51-2.51,2.4-5.44,2.4-8.59,0-9.2-7.46-16.67-16.67-16.67-4.91,0-9.32,2.14-12.37,5.52,7.16,8.5,16.26,15.31,26.63,19.73Z"/>
          <path class="cls-7" d="m290.44,165.91c-8.91.34-16.03,7.64-16.03,16.63s7.46,16.67,16.67,16.67c3.21,0,6.2-.92,8.74-2.5-.75-11.17-4.07-21.63-9.38-30.8Z"/>
          <circle class="cls-7" cx="250.6" cy="218.25" r="16.67"/>
          <path class="cls-7" d="m256.55,245.63c-9.2,0-16.67,7.46-16.67,16.67,0,3.45,1.05,6.65,2.84,9.31,11.11-2.23,21.27-7.05,29.87-13.79-1.96-7.03-8.39-12.19-16.04-12.19Z"/>
          <path class="cls-7" d="m242.35,131.5c-3,3.01-4.85,7.17-4.85,11.75,0,9.2,7.46,16.67,16.67,16.67s16.24-7.07,16.63-15.94c-8.3-6.09-17.96-10.43-28.44-12.48Z"/>
          <circle class="cls-7" cx="214.88" cy="193.25" r="16.67"/>
        </g>
        <g class="cls-9">
          <path class="cls-1" d="m228.57,149.21c-11.58.2-22.16,3.84-31.51,10.65-3.72,2.71-7.29-3.48-3.61-6.17,10.33-7.53,22.35-11.41,35.12-11.63,4.6-.08,4.6,7.06,0,7.14h0Z"/>
        </g>
        <g class="cls-9">
          <path class="cls-1" d="m228.57,252.78c28.67-.44,51.19-23.18,51.79-51.79.1-4.59,7.24-4.61,7.14,0-.67,32.5-26.34,58.43-58.93,58.93-4.6.07-4.6-7.07,0-7.14h0Z"/>
        </g>
        <g class="cls-9">
          <path class="cls-1" d="m176.79,200.99c.35,18.06,9.22,34.15,24.41,43.97,3.85,2.49.27,8.67-3.61,6.17-17.33-11.2-27.55-29.48-27.94-50.13-.09-4.6,7.05-4.6,7.14,0h0Z"/>
        </g>
      </g>
      <path class="cls-2" d="m159.12,157.14c-3.18.85-11.21,19.31-11.21,19.31l8.83,1.61,15.25.8-9.63-23.28"/>
      <path class="cls-2" d="m151.03,7.26c4.78-9.68,12.6-9.68,17.37,0l15.19,30.78c4.78,9.68,17.43,18.87,28.11,20.43l33.97,4.94c10.68,1.55,13.1,8.99,5.37,16.52l-24.58,23.96c-7.73,7.54-12.56,22.41-10.74,33.05l5.8,33.83c1.83,10.64-4.5,15.24-14.06,10.21l-30.38-15.97c-9.56-5.02-25.19-5.02-34.75,0l-30.38,15.97c-9.56,5.02-15.88.43-14.06-10.21l5.8-33.83c1.83-10.64-3.01-25.51-10.74-33.05l-24.58-23.96c-7.73-7.54-5.32-14.97,5.37-16.52l33.97-4.94c10.68-1.55,23.34-10.74,28.11-20.43l15.19-30.78Z"/>
      <g class="cls-3">
        <path class="cls-1" d="m103.15,82.61c23.14,3.74,46.72-10.94,52.64-33.88,1.63-6.31-8.13-9-9.76-2.69-4.43,17.18-22.42,29.68-40.19,26.81-6.37-1.03-9.11,8.72-2.69,9.76h0Z"/>
      </g>
      <g class="cls-3">
        <path class="cls-1" d="m205.01,91.72c-9.52,14.33-12.14,32.23-7.3,48.72,1.83,6.24,11.6,3.58,9.76-2.69-4.13-14.06-1.82-28.73,6.28-40.92,3.61-5.44-5.15-10.52-8.74-5.11h0Z"/>
      </g>
      <g class="cls-3">
        <path class="cls-1" d="m130.03,161.13c7.02-4.34,14.67-7.15,22.91-8.01,6.41-.67,6.48-10.8,0-10.12-10.04,1.06-19.41,4.07-28.02,9.4-5.53,3.42-.45,12.18,5.11,8.74h0Z"/>
      </g>
      <g>
        <path class="cls-6" d="m151.27,163.53c6.35-.99,12.63-.71,18.89.79,1.27.3,1.81-1.65.54-1.95-6.62-1.58-13.24-1.83-19.97-.79-1.28.2-.74,2.15.54,1.95h0Z"/>
        <path class="cls-6" d="m163.22,163.72c-10.2,7.02-8.21,20.58-5.3,30.91,2.52,8.93,5.31,18.3.55,27.01-3.07,5.62-7.95,9.98-11.86,14.99-6.79,8.7-7.95,18.23-1.2,27.33,8.14,10.97,20.97,18.14,19.83,33.62-.71,9.69-4.03,18.86-4.13,28.65-.1,9.27,1.64,18.39,4.92,27.05.46,1.21,2.41.68,1.95-.54-3-7.95-4.73-16.23-4.84-24.75-.12-8.48,1.95-16.44,3.4-24.72,1.07-6.15,1.36-12.43-1.24-18.25-2.16-4.84-5.84-8.83-9.46-12.61-8.63-8.99-18-18.76-9.83-31.51,5.92-9.23,16.08-15.85,17.1-27.62,1.25-14.33-14.59-37.01,1.13-47.83,1.07-.73.06-2.49-1.02-1.75h0Z"/>
      </g>
    </g>
  </g>
</svg>